<svg role="img" viewBox="0 0 24 24" xmlns="http://www.w3.org/2000/svg">
  <path fill="#FF9900" d="M6.763 10.036c0 .296.032.535.088.71.064.176.144.368.256.576.04.064.056.128.056.184 0 .08-.048.16-.152.24l-.504.336a.383.383 0 0 1-.208.072c-.08 0-.16-.04-.24-.112a2.494 2.494 0 0 1-.288-.376 6.18 6.18 0 0 1-.248-.472c-.624.736-1.408 1.104-2.352 1.104-.672 0-1.208-.192-1.6-.576-.392-.384-.592-.896-.592-1.536 0-.68.24-1.232.728-1.648.488-.416 1.136-.624 1.96-.624.272 0 .552.024.848.064.296.04.6.104.92.176v-.584c0-.608-.128-1.032-.376-1.28-.256-.248-.688-.368-1.304-.368-.28 0-.568.032-.864.104-.296.072-.584.16-.864.272a2.294 2.294 0 0 1-.28.104.488.488 0 0 1-.128.024c-.112 0-.168-.08-.168-.248v-.392c0-.128.016-.224.056-.28a.597.597 0 0 1 .224-.168c.28-.144.616-.264 1.008-.36A4.8 4.8 0 0 1 3.944 6c.944 0 1.632.216 2.072.648.432.432.656 1.088.656 1.968l.091 1.42zM3.524 11.244c.264 0 .536-.048.824-.144.288-.096.544-.272.76-.512.128-.152.224-.32.272-.512.048-.192.08-.424.08-.696v-.336a6.66 6.66 0 0 0-.736-.136 6.02 6.02 0 0 0-.752-.048c-.536 0-.928.104-1.192.32-.264.216-.392.52-.392.92 0 .376.096.656.296.848.192.2.472.296.84.296zm6.44.896c-.144 0-.24-.024-.304-.08-.064-.048-.12-.16-.168-.312L7.58 6.616a1.41 1.41 0 0 1-.072-.32c0-.128.064-.2.192-.2h.784c.152 0 .256.024.312.08.064.048.112.16.16.312l1.336 5.272 1.24-5.272c.04-.16.088-.264.152-.312a.52.52 0 0 1 .32-.08h.64c.152 0 .256.024.32.08.064.048.12.16.152.312l1.256 5.336 1.376-5.336c.048-.16.104-.264.16-.312a.52.52 0 0 1 .312-.08h.744c.128 0 .2.064.2.2 0 .04-.008.08-.016.128a1.137 1.137 0 0 1-.056.2l-1.92 5.632c-.048.16-.104.264-.168.312-.064.048-.168.08-.304.08h-.688c-.152 0-.256-.024-.32-.08-.064-.056-.12-.16-.152-.32L12.56 7.696l-1.216 4.836c-.04.16-.088.264-.152.32-.064.056-.176.08-.32.08h-.688zm10.176.24c-.416 0-.832-.048-1.232-.144-.4-.096-.712-.2-.92-.32-.128-.072-.216-.152-.248-.224a.56.56 0 0 1-.048-.224v-.408c0-.168.064-.248.184-.248.048 0 .096.008.144.024.048.016.12.048.2.08.272.12.568.216.888.28.328.064.648.096.976.096.52 0 .92-.088 1.2-.264a.863.863 0 0 0 .424-.752.78.78 0 0 0-.216-.552c-.144-.152-.416-.288-.808-.416l-1.16-.36c-.584-.184-1.016-.456-1.288-.816a1.953 1.953 0 0 1-.408-1.2c0-.344.072-.648.216-.912.144-.264.336-.496.576-.688.24-.2.512-.344.832-.448.32-.104.656-.152 1.008-.152.176 0 .36.008.536.032.184.024.352.056.512.096.152.04.296.088.432.136.136.048.24.096.312.144a.65.65 0 0 1 .208.184.4.4 0 0 1 .056.224v.376c0 .168-.064.256-.184.256a.83.83 0 0 1-.304-.096 3.652 3.652 0 0 0-1.536-.312c-.472 0-.84.072-1.096.224-.256.152-.384.384-.384.704 0 .216.08.4.24.552.16.152.456.304.88.44l1.136.36c.576.184.992.44 1.24.776.248.336.368.72.368 1.144 0 .352-.072.672-.208.952-.144.28-.336.528-.584.728-.248.208-.544.36-.888.464-.36.112-.744.168-1.16.168zM20.16 17.664c-2.168 1.6-5.312 2.448-8.016 2.448-3.792 0-7.208-1.4-9.792-3.728-.2-.184-.024-.432.224-.296 2.792 1.624 6.24 2.6 9.8 2.6 2.4 0 5.04-.496 7.472-1.528.368-.16.672.24.312.504zM21.088 16.592c-.28-.36-1.848-.168-2.552-.088-.216.024-.248-.16-.056-.296 1.248-.88 3.296-.624 3.536-.328.24.296-.064 2.352-1.232 3.336-.18.152-.352.072-.272-.128.264-.648.848-2.136.576-2.496z"/>
</svg>
